<?xml version="1.0" encoding="UTF-8" standalone="no"?>
<svg
   xmlns:dc="http://purl.org/dc/elements/1.1/"
   xmlns:cc="http://creativecommons.org/ns#"
   xmlns:rdf="http://www.w3.org/1999/02/22-rdf-syntax-ns#"
   xmlns:svg="http://www.w3.org/2000/svg"
   xmlns="http://www.w3.org/2000/svg"
   xmlns:sodipodi="http://sodipodi.sourceforge.net/DTD/sodipodi-0.dtd"
   xmlns:inkscape="http://www.inkscape.org/namespaces/inkscape"
   viewBox="0 0 20 20"
   width="40"
   height="40"
   id="svg2"
   version="1.1"
   inkscape:version="0.48.4 r9939"
   sodipodi:docname="user-blue600-solid.svg"
   style="fill:#000000">
  <metadata
     id="metadata12">
    <rdf:RDF>
      <cc:Work
         rdf:about="">
        <dc:format>image/svg+xml</dc:format>
        <dc:type
           rdf:resource="http://purl.org/dc/dcmitype/StillImage" />
        <dc:title></dc:title>
      </cc:Work>
    </rdf:RDF>
  </metadata>
  <defs
     id="defs10" />
  <sodipodi:namedview
     pagecolor="#ffffff"
     bordercolor="#666666"
     borderopacity="1"
     objecttolerance="10"
     gridtolerance="10"
     guidetolerance="10"
     inkscape:pageopacity="0"
     inkscape:pageshadow="2"
     inkscape:window-width="1920"
     inkscape:window-height="1056"
     id="namedview8"
     showgrid="false"
     inkscape:zoom="19.666667"
     inkscape:cx="12.879887"
     inkscape:cy="20.322034"
     inkscape:window-x="1600"
     inkscape:window-y="0"
     inkscape:window-maximized="1"
     inkscape:current-layer="layer1"
     fit-margin-top="0"
     fit-margin-left="0"
     fit-margin-right="0"
     fit-margin-bottom="0" />
  <g
     inkscape:groupmode="layer"
     id="layer2"
     inkscape:label="background"
     transform="translate(0.03389832,-0.16101696)">
    <path
       sodipodi:type="arc"
       style="fill:#ffffff;fill-opacity:1"
       id="path3003"
       sodipodi:cx="19.144068"
       sodipodi:cy="19.381355"
       sodipodi:rx="17.516949"
       sodipodi:ry="17.415255"
       d="m 36.661016,19.381355 a 17.516949,17.415255 0 1 1 -35.0338969,0 17.516949,17.415255 0 1 1 35.0338969,0 z"
       transform="matrix(0.5,0,0,0.5,0.29661015,0.38983052)" />
  </g>
  <path
     d="M -1.9661017,-2.161017 H 22.033898 v 24 H -1.9661017 v -24 z"
     id="path4"
     inkscape:connector-curvature="0"
     style="fill:none" />
  <g
     inkscape:groupmode="layer"
     id="layer1"
     inkscape:label="foreground"
     transform="translate(0.03389832,-0.16101696)"
     style="display:inline">
    <path
       d="m 9.9661017,0.16101696 c -5.52,0 -10.00000002,4.48000004 -10.00000002,10.00000004 0,5.52 4.48000002,10 10.00000002,10 5.5200003,0 10.0000003,-4.48 10.0000003,-10 0,-5.52 -4.48,-10.00000004 -10.0000003,-10.00000004 z m 0,3.00000004 c 1.6600003,0 3.0000003,1.34 3.0000003,3 0,1.66 -1.34,3 -3.0000003,3 -1.66,0 -3,-1.34 -3,-3 0,-1.66 1.34,-3 3,-3 z m 0,14.2 c -2.5,0 -4.71,-1.28 -6,-3.22 0.03,-1.99 4,-3.08 6,-3.08 1.9900003,0 5.9700003,1.09 6.0000003,3.08 -1.29,1.94 -3.5,3.22 -6.0000003,3.22 z"
       id="path6"
       style="fill:#db2777;fill-opacity:1"
       inkscape:connector-curvature="0" />
  </g>
</svg>
