<?xml version="1.0" encoding="UTF-8" standalone="no"?>
<!-- Generator: Adobe Illustrator 18.0.0, SVG Export Plug-In . SVG Version: 6.00 Build 0)  -->

<svg
   xmlns:dc="http://purl.org/dc/elements/1.1/"
   xmlns:cc="http://creativecommons.org/ns#"
   xmlns:rdf="http://www.w3.org/1999/02/22-rdf-syntax-ns#"
   xmlns:svg="http://www.w3.org/2000/svg"
   xmlns="http://www.w3.org/2000/svg"
   xmlns:sodipodi="http://sodipodi.sourceforge.net/DTD/sodipodi-0.dtd"
   xmlns:inkscape="http://www.inkscape.org/namespaces/inkscape"
   version="1.1"
   id="Layer_2_1_"
   x="0px"
   y="0px"
   viewBox="0 0 224.72953 200.13113"
   enable-background="new 0 0 841.9 595.3"
   xml:space="preserve"
   inkscape:version="0.48.4 r9939"
   width="100%"
   height="100%"
   sodipodi:docname="react-redux-logos.svg"><metadata
     id="metadata17"><rdf:RDF><cc:Work
         rdf:about=""><dc:format>image/svg+xml</dc:format><dc:type
           rdf:resource="http://purl.org/dc/dcmitype/StillImage" /><dc:title></dc:title></cc:Work></rdf:RDF></metadata><defs
     id="defs15" /><sodipodi:namedview
     pagecolor="#ffffff"
     bordercolor="#666666"
     borderopacity="1"
     objecttolerance="10"
     gridtolerance="10"
     guidetolerance="10"
     inkscape:pageopacity="0"
     inkscape:pageshadow="2"
     inkscape:window-width="1920"
     inkscape:window-height="1056"
     id="namedview13"
     showgrid="false"
     fit-margin-top="0"
     fit-margin-left="0"
     fit-margin-right="0"
     fit-margin-bottom="0"
     inkscape:zoom="2.8284271"
     inkscape:cx="107.3191"
     inkscape:cy="69.17286"
     inkscape:window-x="1600"
     inkscape:window-y="0"
     inkscape:window-maximized="1"
     inkscape:current-layer="layer1"
     inkscape:snap-global="true"
     showguides="false"><inkscape:grid
       type="xygrid"
       id="grid3077"
       empspacing="5"
       visible="true"
       enabled="true"
       snapvisiblegridlinesonly="true"
       originx="5.4482421e-06px"
       originy="-2.1391617e-05px" /></sodipodi:namedview><g
     inkscape:groupmode="layer"
     id="layer2"
     inkscape:label="react"
     transform="translate(-79.699999,-335.21885)"><g
       id="g3"
       transform="matrix(0.4580708,0,0,0.4580708,-0.78304081,299.48932)"><path
         d="m 666.3,296.5 c 0,-32.5 -40.7,-63.3 -103.1,-82.4 14.4,-63.6 8,-114.2 -20.2,-130.4 -6.5,-3.8 -14.1,-5.6 -22.4,-5.6 v 22.3 c 4.6,0 8.3,0.9 11.4,2.6 13.6,7.8 19.5,37.5 14.9,75.7 -1.1,9.4 -2.9,19.3 -5.1,29.4 -19.6,-4.8 -41,-8.5 -63.5,-10.9 -13.5,-18.5 -27.5,-35.3 -41.6,-50 32.6,-30.3 63.2,-46.9 84,-46.9 l 0,-22.3 c 0,0 0,0 0,0 -27.5,0 -63.5,19.6 -99.9,53.6 C 384.4,97.8 348.4,78.4 320.9,78.4 v 22.3 c 20.7,0 51.4,16.5 84,46.6 -14,14.7 -28,31.4 -41.3,49.9 -22.6,2.4 -44,6.1 -63.6,11 -2.3,-10 -4,-19.7 -5.2,-29 -4.7,-38.2 1.1,-67.9 14.6,-75.8 3,-1.8 6.9,-2.6 11.5,-2.6 l 0,-22.3 c 0,0 0,0 0,0 -8.4,0 -16,1.8 -22.6,5.6 -28.1,16.2 -34.4,66.7 -19.9,130.1 -62.2,19.2 -102.7,49.9 -102.7,82.3 0,32.5 40.7,63.3 103.1,82.4 -14.4,63.6 -8,114.2 20.2,130.4 6.5,3.8 14.1,5.6 22.5,5.6 27.5,0 63.5,-19.6 99.9,-53.6 36.4,33.8 72.4,53.2 99.9,53.2 8.4,0 16,-1.8 22.6,-5.6 28.1,-16.2 34.4,-66.7 19.9,-130.1 62,-19.1 102.5,-49.9 102.5,-82.3 z M 536.1,229.8 c -3.7,12.9 -8.3,26.2 -13.5,39.5 -4.1,-8 -8.4,-16 -13.1,-24 -4.6,-8 -9.5,-15.8 -14.4,-23.4 14.2,2.1 27.9,4.7 41,7.9 z m -45.8,106.5 c -7.8,13.5 -15.8,26.3 -24.1,38.2 -14.9,1.3 -30,2 -45.2,2 -15.1,0 -30.2,-0.7 -45,-1.9 -8.3,-11.9 -16.4,-24.6 -24.2,-38 -7.6,-13.1 -14.5,-26.4 -20.8,-39.8 6.2,-13.4 13.2,-26.8 20.7,-39.9 7.8,-13.5 15.8,-26.3 24.1,-38.2 14.9,-1.3 30,-2 45.2,-2 15.1,0 30.2,0.7 45,1.9 8.3,11.9 16.4,24.6 24.2,38 7.6,13.1 14.5,26.4 20.8,39.8 -6.3,13.4 -13.2,26.8 -20.7,39.9 z m 32.3,-13 c 5.4,13.4 10,26.8 13.8,39.8 -13.1,3.2 -26.9,5.9 -41.2,8 4.9,-7.7 9.8,-15.6 14.4,-23.7 4.6,-8 8.9,-16.1 13,-24.1 z M 421.2,430 c -9.3,-9.6 -18.6,-20.3 -27.8,-32 9,0.4 18.2,0.7 27.5,0.7 9.4,0 18.7,-0.2 27.8,-0.7 -9,11.7 -18.3,22.4 -27.5,32 z m -74.4,-58.9 c -14.2,-2.1 -27.9,-4.7 -41,-7.9 3.7,-12.9 8.3,-26.2 13.5,-39.5 4.1,8 8.4,16 13.1,24 4.7,8 9.5,15.8 14.4,23.4 z M 420.7,163 c 9.3,9.6 18.6,20.3 27.8,32 -9,-0.4 -18.2,-0.7 -27.5,-0.7 -9.4,0 -18.7,0.2 -27.8,0.7 9,-11.7 18.3,-22.4 27.5,-32 z m -74,58.9 c -4.9,7.7 -9.8,15.6 -14.4,23.7 -4.6,8 -8.9,16 -13,24 -5.4,-13.4 -10,-26.8 -13.8,-39.8 13.1,-3.1 26.9,-5.8 41.2,-7.9 z m -90.5,125.2 c -35.4,-15.1 -58.3,-34.9 -58.3,-50.6 0,-15.7 22.9,-35.6 58.3,-50.6 8.6,-3.7 18,-7 27.7,-10.1 5.7,19.6 13.2,40 22.5,60.9 -9.2,20.8 -16.6,41.1 -22.2,60.6 -9.9,-3.1 -19.3,-6.5 -28,-10.2 z M 310,490 c -13.6,-7.8 -19.5,-37.5 -14.9,-75.7 1.1,-9.4 2.9,-19.3 5.1,-29.4 19.6,4.8 41,8.5 63.5,10.9 13.5,18.5 27.5,35.3 41.6,50 -32.6,30.3 -63.2,46.9 -84,46.9 -4.5,-0.1 -8.3,-1 -11.3,-2.7 z m 237.2,-76.2 c 4.7,38.2 -1.1,67.9 -14.6,75.8 -3,1.8 -6.9,2.6 -11.5,2.6 -20.7,0 -51.4,-16.5 -84,-46.6 14,-14.7 28,-31.4 41.3,-49.9 22.6,-2.4 44,-6.1 63.6,-11 2.3,10.1 4.1,19.8 5.2,29.1 z m 38.5,-66.7 c -8.6,3.7 -18,7 -27.7,10.1 -5.7,-19.6 -13.2,-40 -22.5,-60.9 9.2,-20.8 16.6,-41.1 22.2,-60.6 9.9,3.1 19.3,6.5 28.1,10.2 35.4,15.1 58.3,34.9 58.3,50.6 -0.1,15.7 -23,35.6 -58.4,50.6 z"
         id="path5"
         inkscape:connector-curvature="0"
         style="fill:#61dafb" /><polygon
         points="320.8,78.4 320.8,78.4 320.8,78.4 "
         id="polygon7"
         style="fill:#61dafb" /><circle
         cx="420.89999"
         cy="296.5"
         r="45.700001"
         id="circle9"
         sodipodi:cx="420.89999"
         sodipodi:cy="296.5"
         sodipodi:rx="45.700001"
         sodipodi:ry="45.700001"
         style="fill:#61dafb"
         d="m 466.59999,296.5 c 0,25.23941 -20.46058,45.7 -45.7,45.7 -25.23941,0 -45.7,-20.46059 -45.7,-45.7 0,-25.23941 20.46059,-45.7 45.7,-45.7 25.23942,0 45.7,20.46059 45.7,45.7 z" /><polygon
         points="520.5,78.1 520.5,78.1 520.5,78.1 "
         id="polygon11"
         style="fill:#61dafb" /></g></g><g
     inkscape:groupmode="layer"
     id="layer1"
     inkscape:label="redux"
     transform="translate(-79.699999,-335.21885)"><g
       id="g4"
       style="fill:#764abc"
       transform="matrix(2.2481954,0,0,2.2481954,80.150456,307.83723)"><path
         d="m 65.6,65.4 c 2.9,-0.3 5.1,-2.8 5,-5.8 -0.1,-3 -2.6,-5.4 -5.6,-5.4 h -0.2 c -3.1,0.1 -5.5,2.7 -5.4,5.8 0.1,1.5 0.7,2.8 1.6,3.7 -3.4,6.7 -8.6,11.6 -16.4,15.7 -5.3,2.8 -10.8,3.8 -16.3,3.1 -4.5,-0.6 -8,-2.6 -10.2,-5.9 -3.2,-4.9 -3.5,-10.2 -0.8,-15.5 1.9,-3.8 4.9,-6.6 6.8,-8 -0.4,-1.3 -1,-3.5 -1.3,-5.1 -14.5,10.5 -13,24.7 -8.6,31.4 3.3,5 10,8.1 17.4,8.1 2,0 4,-0.2 6,-0.7 12.8,-2.5 22.5,-10.1 28,-21.4 z"
         id="path6"
         inkscape:connector-curvature="0" /><path
         d="M 83.2,53 C 75.6,44.1 64.4,39.2 51.6,39.2 H 50 c -0.9,-1.8 -2.8,-3 -4.9,-3 h -0.2 c -3.1,0.1 -5.5,2.7 -5.4,5.8 0.1,3 2.6,5.4 5.6,5.4 h 0.2 c 2.2,-0.1 4.1,-1.5 4.9,-3.4 H 52 c 7.6,0 14.8,2.2 21.3,6.5 5,3.3 8.6,7.6 10.6,12.8 1.7,4.2 1.6,8.3 -0.2,11.8 -2.8,5.3 -7.5,8.2 -13.7,8.2 -4,0 -7.8,-1.2 -9.8,-2.1 -1.1,1 -3.1,2.6 -4.5,3.6 4.3,2 8.7,3.1 12.9,3.1 9.6,0 16.7,-5.3 19.4,-10.6 2.9,-5.8 2.7,-15.8 -4.8,-24.3 z"
         id="path8"
         inkscape:connector-curvature="0" /><path
         d="m 32.4,67.1 c 0.1,3 2.6,5.4 5.6,5.4 h 0.2 c 3.1,-0.1 5.5,-2.7 5.4,-5.8 -0.1,-3 -2.6,-5.4 -5.6,-5.4 h -0.2 c -0.2,0 -0.5,0 -0.7,0.1 -4.1,-6.8 -5.8,-14.2 -5.2,-22.2 0.4,-6 2.4,-11.2 5.9,-15.5 2.9,-3.7 8.5,-5.5 12.3,-5.6 10.6,-0.2 15.1,13 15.4,18.3 1.3,0.3 3.5,1 5,1.5 C 69.3,21.7 59.3,13.3 49.7,13.3 c -9,0 -17.3,6.5 -20.6,16.1 -4.6,12.8 -1.6,25.1 4,34.8 -0.5,0.7 -0.8,1.8 -0.7,2.9 z"
         id="path10"
         inkscape:connector-curvature="0" /></g></g></svg>